<?xml version="1.0" standalone="no"?>
<!DOCTYPE svg PUBLIC "-//W3C//DTD SVG 20010904//EN"
 "http://www.w3.org/TR/2001/REC-SVG-20010904/DTD/svg10.dtd">
<svg version="1.0" xmlns="http://www.w3.org/2000/svg"
 width="234.000000pt" height="234.000000pt" viewBox="0 0 234.000000 234.000000"
 preserveAspectRatio="xMidYMid meet">
<metadata>
Created by potrace 1.14, written by Peter Selinger 2001-2017
</metadata>
<g transform="translate(0.000000,234.000000) scale(0.100000,-0.100000)"
fill="#000000" stroke="none">
<path d="M388 2021 c-41 -19 -52 -30 -78 -75 -20 -36 -23 -96 -7 -124 5 -6 5
-12 1 -12 -5 0 9 -18 31 -40 47 -48 98 -63 158 -48 26 6 39 -4 188 -154 87
-88 159 -163 159 -165 0 -2 -10 -23 -21 -46 -15 -29 -23 -64 -24 -112 -3 -85
4 -114 48 -184 l34 -54 -31 -46 c-17 -25 -33 -48 -36 -51 -3 -3 -48 -68 -99
-145 -52 -77 -97 -142 -101 -145 -3 -3 -19 -26 -35 -52 -27 -44 -33 -48 -69
-48 -97 0 -168 -75 -162 -169 6 -83 62 -141 143 -147 47 -4 113 17 113 36 0 6
4 9 8 6 14 -9 49 67 50 109 1 22 -5 54 -12 70 -13 29 -11 34 78 165 49 74 93
137 96 140 3 3 10 13 15 22 6 9 37 57 70 107 48 71 64 89 80 86 11 -2 36 -8
55 -13 56 -14 157 3 203 34 20 13 -6 38 417 -397 101 -104 115 -121 107 -141
-12 -33 -1 -108 21 -137 33 -44 81 -71 127 -73 27 -1 80 14 87 25 4 7 8 8 8 4
0 -4 13 7 28 25 34 40 52 96 40 127 -4 13 -6 26 -3 31 3 4 -12 27 -33 49 -41
46 -89 64 -155 55 -37 -4 -40 -2 -171 133 -406 418 -377 385 -362 408 36 55
49 152 32 238 -7 31 -5 37 8 37 9 0 16 4 16 8 0 5 17 17 38 29 20 11 75 44
122 73 47 29 104 64 128 77 23 14 42 30 42 36 0 5 3 7 6 4 4 -4 19 2 34 13 16
11 33 20 39 20 6 0 11 4 11 10 0 17 49 23 66 9 18 -15 124 -21 124 -7 0 5 4 7
10 3 12 -7 93 73 85 85 -3 5 -1 11 5 15 5 3 10 25 10 49 0 32 -8 54 -31 85
-90 126 -272 75 -287 -79 -3 -33 -9 -50 -18 -50 -8 0 -14 -4 -14 -8 0 -4 -25
-21 -55 -37 -30 -17 -55 -33 -55 -37 0 -5 -5 -8 -11 -8 -6 0 -22 -9 -36 -20
-14 -11 -29 -17 -34 -14 -5 3 -9 1 -9 -4 0 -10 -115 -82 -131 -82 -6 0 -7 -4
-4 -10 3 -5 0 -10 -7 -10 -8 0 -36 -14 -62 -30 -49 -31 -79 -33 -90 -5 -3 8
-12 15 -21 15 -8 0 -15 4 -15 10 0 5 -3 9 -7 8 -5 -1 -18 3 -30 10 -13 7 -23
10 -23 6 0 -3 -6 -1 -14 5 -14 11 -112 16 -152 7 -12 -2 -40 -14 -62 -25 l-40
-20 -158 160 c-88 88 -160 161 -162 163 -1 2 1 21 6 43 28 123 -107 228 -220
174z"/>
</g>
</svg>
